<svg width="52" height="52" viewBox="0 0 52 52" fill="none" xmlns="http://www.w3.org/2000/svg">
    <path
        d="M26 33.2368C26 33.2368 21.9951 22.0526 21.3947 17.4474C20.7944 12.8421 23.7899 9.55263 26 9.55263C28.2101 9.55263 31.5263 12.8421 30.6053 17.4474C29.6842 22.0526 26 33.2368 26 33.2368Z"
        fill="#E8E8E8" />
    <path fill-rule="evenodd" clip-rule="evenodd"
        d="M26 1C27.9737 1 51 24.0263 51 26C51 27.9737 27.9737 51 26 51C24.0263 51 1 27.9737 1 26C1 24.0263 24.0263 1 26 1ZM23.3684 39.8158C23.3684 41.2692 24.5466 42.4474 26 42.4474C27.4534 42.4474 28.6316 41.2692 28.6316 39.8158C28.6316 38.3624 27.4534 37.1842 26 37.1842C24.5466 37.1842 23.3684 38.3624 23.3684 39.8158ZM21.3947 17.4474C21.9951 22.0526 26 33.2368 26 33.2368C26 33.2368 29.6842 22.0526 30.6053 17.4474C31.5263 12.8421 28.2101 9.55263 26 9.55263C23.7899 9.55263 20.7944 12.8421 21.3947 17.4474Z"
        fill="#FF5C5C" />
    <path
        d="M26 42.4474C24.5466 42.4474 23.3684 41.2692 23.3684 39.8158C23.3684 38.3624 24.5466 37.1842 26 37.1842C27.4534 37.1842 28.6316 38.3624 28.6316 39.8158C28.6316 41.2692 27.4534 42.4474 26 42.4474Z"
        fill="#E8E8E8" />
    <path
        d="M26 33.2368C26 33.2368 21.9951 22.0526 21.3947 17.4474C20.7944 12.8421 23.7899 9.55263 26 9.55263C28.2101 9.55263 31.5263 12.8421 30.6053 17.4474C29.6842 22.0526 26 33.2368 26 33.2368Z"
        stroke="black" stroke-linecap="round" stroke-linejoin="round" />
    <path fill-rule="evenodd" clip-rule="evenodd"
        d="M26 1C27.9737 1 51 24.0263 51 26C51 27.9737 27.9737 51 26 51C24.0263 51 1 27.9737 1 26C1 24.0263 24.0263 1 26 1ZM23.3684 39.8158C23.3684 41.2692 24.5466 42.4474 26 42.4474C27.4534 42.4474 28.6316 41.2692 28.6316 39.8158C28.6316 38.3624 27.4534 37.1842 26 37.1842C24.5466 37.1842 23.3684 38.3624 23.3684 39.8158ZM21.3947 17.4474C21.9951 22.0526 26 33.2368 26 33.2368C26 33.2368 29.6842 22.0526 30.6053 17.4474C31.5263 12.8421 28.2101 9.55263 26 9.55263C23.7899 9.55263 20.7944 12.8421 21.3947 17.4474Z"
        stroke="black" stroke-linecap="round" stroke-linejoin="round" />
    <path
        d="M26 42.4474C24.5466 42.4474 23.3684 41.2692 23.3684 39.8158C23.3684 38.3624 24.5466 37.1842 26 37.1842C27.4534 37.1842 28.6316 38.3624 28.6316 39.8158C28.6316 41.2692 27.4534 42.4474 26 42.4474Z"
        stroke="black" stroke-linecap="round" stroke-linejoin="round" />
</svg>
    