<svg width="55" height="55" viewBox="0 0 55 55" fill="none" xmlns="http://www.w3.org/2000/svg">
    <path
        d="M27.5 35.4605C25.3 35.4605 24.2 26.95 24.2 22C24.2 17.05 25.3 9.35 27.5 9.35C29.7 9.35 31.35 17.05 31.35 22C31.35 26.95 29.7 35.4605 27.5 35.4605Z"
        fill="#E8E8E8" />
    <path fill-rule="evenodd" clip-rule="evenodd"
        d="M27.5 0C29.6711 0 55 25.3289 55 27.5C55 29.6711 29.6711 55 27.5 55C25.3289 55 0 29.6711 0 27.5C0 25.3289 25.3289 0 27.5 0ZM24.6053 42.6974C24.6053 44.2961 25.9013 45.5921 27.5 45.5921C29.0987 45.5921 30.3947 44.2961 30.3947 42.6974C30.3947 41.0986 29.0987 39.8026 27.5 39.8026C25.9013 39.8026 24.6053 41.0986 24.6053 42.6974ZM24.2 22C24.2 26.95 25.3 35.4605 27.5 35.4605C29.7 35.4605 31.35 26.95 31.35 22C31.35 17.05 29.7 9.35 27.5 9.35C25.3 9.35 24.2 17.05 24.2 22Z"
        fill="#FF5C5C" />
    <path
        d="M27.5 45.5921C25.9013 45.5921 24.6053 44.2961 24.6053 42.6974C24.6053 41.0986 25.9013 39.8026 27.5 39.8026C29.0987 39.8026 30.3947 41.0986 30.3947 42.6974C30.3947 44.2961 29.0987 45.5921 27.5 45.5921Z"
        fill="#E8E8E8" />
    <path
        d="M27.5 35.4605C25.3 35.4605 24.2 26.95 24.2 22C24.2 17.05 25.3 9.35 27.5 9.35C29.7 9.35 31.35 17.05 31.35 22C31.35 26.95 29.7 35.4605 27.5 35.4605Z"
        stroke="black" />
    <path fill-rule="evenodd" clip-rule="evenodd"
        d="M27.5 0C29.6711 0 55 25.3289 55 27.5C55 29.6711 29.6711 55 27.5 55C25.3289 55 0 29.6711 0 27.5C0 25.3289 25.3289 0 27.5 0ZM24.6053 42.6974C24.6053 44.2961 25.9013 45.5921 27.5 45.5921C29.0987 45.5921 30.3947 44.2961 30.3947 42.6974C30.3947 41.0986 29.0987 39.8026 27.5 39.8026C25.9013 39.8026 24.6053 41.0986 24.6053 42.6974ZM24.2 22C24.2 26.95 25.3 35.4605 27.5 35.4605C29.7 35.4605 31.35 26.95 31.35 22C31.35 17.05 29.7 9.35 27.5 9.35C25.3 9.35 24.2 17.05 24.2 22Z"
        stroke="black" />
    <path
        d="M27.5 45.5921C25.9013 45.5921 24.6053 44.2961 24.6053 42.6974C24.6053 41.0986 25.9013 39.8026 27.5 39.8026C29.0987 39.8026 30.3947 41.0986 30.3947 42.6974C30.3947 44.2961 29.0987 45.5921 27.5 45.5921Z"
        stroke="black" />
</svg>
    